<?xml version="1.0" encoding="UTF-8" standalone="no"?>
<!DOCTYPE svg PUBLIC "-//W3C//DTD SVG 1.1//EN"
 "http://www.w3.org/Graphics/SVG/1.1/DTD/svg11.dtd">
<!-- Generated by graphviz version 2.43.0 (0)
 -->
<!-- Title: G Pages: 1 -->
<svg width="738pt" height="605pt"
 viewBox="0.00 0.00 738.00 605.00" xmlns="http://www.w3.org/2000/svg" xmlns:xlink="http://www.w3.org/1999/xlink">
<g id="graph0" class="graph" transform="scale(1 1) rotate(0) translate(4 601)">
<title>G</title>
<polygon fill="white" stroke="transparent" points="-4,4 -4,-601 734,-601 734,4 -4,4"/>
<g id="clust1" class="cluster">
<title>clusterSlots</title>
<polygon fill="none" stroke="black" stroke-dasharray="5,2" points="506,-8 506,-589 722,-589 722,-8 506,-8"/>
<text text-anchor="middle" x="614" y="-573.8" font-family="Times,serif" font-size="14.00">Slots</text>
</g>
<!-- Orchestrator -->
<g id="node1" class="node">
<title>Orchestrator</title>
<polygon fill="#e0f7fa" stroke="black" points="478,-332 369,-332 369,-296 478,-296 478,-332"/>
<text text-anchor="middle" x="423.5" y="-310.3" font-family="Times,serif" font-size="14.00">Orchestrator</text>
</g>
<!-- Slot01 -->
<g id="node5" class="node">
<title>Slot01</title>
<polygon fill="#e0f7fa" stroke="black" points="669.5,-110 558.5,-110 558.5,-72 669.5,-72 669.5,-110"/>
<text text-anchor="middle" x="614" y="-94.8" font-family="Times,serif" font-size="14.00">Slot01</text>
<text text-anchor="middle" x="614" y="-79.8" font-family="Times,serif" font-size="14.00">Truth Anchor</text>
</g>
<!-- Orchestrator&#45;&gt;Slot01 -->
<g id="edge11" class="edge">
<title>Orchestrator&#45;&gt;Slot01</title>
<path fill="none" stroke="black" d="M469.22,-295.93C472.53,-293.32 475.53,-290.35 478,-287 522.86,-226.03 454.96,-174.9 506,-119 517.04,-106.9 532.61,-99.76 548.45,-95.61"/>
<polygon fill="black" stroke="black" points="549.33,-99 558.32,-93.4 547.79,-92.17 549.33,-99"/>
</g>
<!-- Slot02 -->
<g id="node6" class="node">
<title>Slot02</title>
<polygon fill="#e0f7fa" stroke="black" points="666,-54 562,-54 562,-16 666,-16 666,-54"/>
<text text-anchor="middle" x="614" y="-38.8" font-family="Times,serif" font-size="14.00">Slot02</text>
<text text-anchor="middle" x="614" y="-23.8" font-family="Times,serif" font-size="14.00">DeltaThresh</text>
</g>
<!-- Orchestrator&#45;&gt;Slot02 -->
<g id="edge12" class="edge">
<title>Orchestrator&#45;&gt;Slot02</title>
<path fill="none" stroke="black" d="M469.86,-295.64C472.94,-293.1 475.72,-290.23 478,-287 535.8,-204.99 439.87,-138.46 506,-63 517.64,-49.72 534.72,-42.37 551.83,-38.4"/>
<polygon fill="black" stroke="black" points="552.73,-41.79 561.87,-36.43 551.39,-34.92 552.73,-41.79"/>
</g>
<!-- Slot03 -->
<g id="node7" class="node">
<title>Slot03</title>
<polygon fill="#e0f7fa" stroke="black" points="685,-558 543,-558 543,-520 685,-520 685,-558"/>
<text text-anchor="middle" x="614" y="-542.8" font-family="Times,serif" font-size="14.00">Slot03</text>
<text text-anchor="middle" x="614" y="-527.8" font-family="Times,serif" font-size="14.00">Emotional Matrix</text>
</g>
<!-- Orchestrator&#45;&gt;Slot03 -->
<g id="edge13" class="edge">
<title>Orchestrator&#45;&gt;Slot03</title>
<path fill="none" stroke="black" d="M426.61,-332.04C432.13,-370.86 450.63,-462.71 506,-511 513.9,-517.89 523.29,-523.11 533.18,-527.07"/>
<polygon fill="black" stroke="black" points="532.18,-530.43 542.78,-530.48 534.53,-523.83 532.18,-530.43"/>
</g>
<!-- Slot04 -->
<g id="node8" class="node">
<title>Slot04</title>
<polygon fill="#e0f7fa" stroke="black" points="660,-502 568,-502 568,-464 660,-464 660,-502"/>
<text text-anchor="middle" x="614" y="-486.8" font-family="Times,serif" font-size="14.00">Slot04</text>
<text text-anchor="middle" x="614" y="-471.8" font-family="Times,serif" font-size="14.00">Tri&#45;Engine</text>
</g>
<!-- Orchestrator&#45;&gt;Slot04 -->
<g id="edge14" class="edge">
<title>Orchestrator&#45;&gt;Slot04</title>
<path fill="none" stroke="black" d="M429.91,-332.22C439.85,-362.49 463.95,-422.95 506,-455 520.95,-466.39 540.1,-473.17 558.07,-477.19"/>
<polygon fill="black" stroke="black" points="557.4,-480.63 567.89,-479.15 558.77,-473.76 557.4,-480.63"/>
</g>
<!-- Slot05 -->
<g id="node9" class="node">
<title>Slot05</title>
<polygon fill="#e0f7fa" stroke="black" points="669.5,-446 558.5,-446 558.5,-408 669.5,-408 669.5,-446"/>
<text text-anchor="middle" x="614" y="-430.8" font-family="Times,serif" font-size="14.00">Slot05</text>
<text text-anchor="middle" x="614" y="-415.8" font-family="Times,serif" font-size="14.00">Constellation</text>
</g>
<!-- Orchestrator&#45;&gt;Slot05 -->
<g id="edge15" class="edge">
<title>Orchestrator&#45;&gt;Slot05</title>
<path fill="none" stroke="black" d="M437.05,-332.11C451.47,-351.54 476.91,-381.91 506,-399 518.91,-406.59 533.89,-412.15 548.48,-416.22"/>
<polygon fill="black" stroke="black" points="547.92,-419.69 558.48,-418.8 549.67,-412.91 547.92,-419.69"/>
</g>
<!-- Slot06 -->
<g id="node10" class="node">
<title>Slot06</title>
<polygon fill="#e0f7fa" stroke="black" points="688.5,-390 539.5,-390 539.5,-352 688.5,-352 688.5,-390"/>
<text text-anchor="middle" x="614" y="-374.8" font-family="Times,serif" font-size="14.00">Slot06</text>
<text text-anchor="middle" x="614" y="-359.8" font-family="Times,serif" font-size="14.00">Cultural Synthesis</text>
</g>
<!-- Orchestrator&#45;&gt;Slot06 -->
<g id="edge16" class="edge">
<title>Orchestrator&#45;&gt;Slot06</title>
<path fill="none" stroke="black" d="M472.97,-332.02C483.78,-335.82 495.24,-339.68 506,-343 513.63,-345.35 521.61,-347.68 529.62,-349.93"/>
<polygon fill="black" stroke="black" points="528.81,-353.33 539.38,-352.62 530.67,-346.59 528.81,-353.33"/>
</g>
<!-- Slot07 -->
<g id="node11" class="node">
<title>Slot07</title>
<polygon fill="#e0f7fa" stroke="black" points="694,-334 534,-334 534,-296 694,-296 694,-334"/>
<text text-anchor="middle" x="614" y="-318.8" font-family="Times,serif" font-size="14.00">Slot07</text>
<text text-anchor="middle" x="614" y="-303.8" font-family="Times,serif" font-size="14.00">Production Controls</text>
</g>
<!-- Orchestrator&#45;&gt;Slot07 -->
<g id="edge17" class="edge">
<title>Orchestrator&#45;&gt;Slot07</title>
<path fill="none" stroke="black" d="M478.01,-314.28C492.21,-314.36 507.93,-314.44 523.48,-314.53"/>
<polygon fill="black" stroke="black" points="523.64,-318.03 533.66,-314.58 523.68,-311.03 523.64,-318.03"/>
</g>
<!-- Slot08 -->
<g id="node12" class="node">
<title>Slot08</title>
<polygon fill="#e0f7fa" stroke="black" points="676.5,-278 551.5,-278 551.5,-240 676.5,-240 676.5,-278"/>
<text text-anchor="middle" x="614" y="-262.8" font-family="Times,serif" font-size="14.00">Slot08</text>
<text text-anchor="middle" x="614" y="-247.8" font-family="Times,serif" font-size="14.00">Memory Ethics</text>
</g>
<!-- Orchestrator&#45;&gt;Slot08 -->
<g id="edge18" class="edge">
<title>Orchestrator&#45;&gt;Slot08</title>
<path fill="none" stroke="black" d="M477.39,-295.93C486.88,-292.85 496.71,-289.75 506,-287 517.44,-283.61 529.62,-280.22 541.52,-277.03"/>
<polygon fill="black" stroke="black" points="542.66,-280.35 551.42,-274.39 540.86,-273.58 542.66,-280.35"/>
</g>
<!-- Slot09 -->
<g id="node13" class="node">
<title>Slot09</title>
<polygon fill="#e0f7fa" stroke="black" points="697.5,-222 530.5,-222 530.5,-184 697.5,-184 697.5,-222"/>
<text text-anchor="middle" x="614" y="-206.8" font-family="Times,serif" font-size="14.00">Slot09</text>
<text text-anchor="middle" x="614" y="-191.8" font-family="Times,serif" font-size="14.00">Distortion Protection</text>
</g>
<!-- Orchestrator&#45;&gt;Slot09 -->
<g id="edge19" class="edge">
<title>Orchestrator&#45;&gt;Slot09</title>
<path fill="none" stroke="black" d="M466.89,-295.97C470.9,-293.3 474.7,-290.32 478,-287 497.64,-267.29 484.39,-248.53 506,-231 510.63,-227.24 515.72,-223.98 521.08,-221.16"/>
<polygon fill="black" stroke="black" points="522.77,-224.23 530.32,-216.8 519.78,-217.9 522.77,-224.23"/>
</g>
<!-- Slot10 -->
<g id="node14" class="node">
<title>Slot10</title>
<polygon fill="#e0f7fa" stroke="black" points="714,-166 514,-166 514,-128 714,-128 714,-166"/>
<text text-anchor="middle" x="614" y="-150.8" font-family="Times,serif" font-size="14.00">Slot10</text>
<text text-anchor="middle" x="614" y="-135.8" font-family="Times,serif" font-size="14.00">Civilizational Deployment</text>
</g>
<!-- Orchestrator&#45;&gt;Slot10 -->
<g id="edge20" class="edge">
<title>Orchestrator&#45;&gt;Slot10</title>
<path fill="none" stroke="black" d="M468.69,-295.91C472.15,-293.29 475.34,-290.33 478,-287 510.03,-246.92 469.92,-211.48 506,-175 506.81,-174.18 507.64,-173.38 508.49,-172.61"/>
<polygon fill="black" stroke="black" points="510.92,-175.16 516.63,-166.24 506.6,-169.65 510.92,-175.16"/>
</g>
<!-- SlotLoader -->
<g id="node2" class="node">
<title>SlotLoader</title>
<polygon fill="#e0f7fa" stroke="black" points="473,-278 374,-278 374,-242 473,-242 473,-278"/>
<text text-anchor="middle" x="423.5" y="-256.3" font-family="Times,serif" font-size="14.00">Slot Loader</text>
</g>
<!-- SlotLoader&#45;&gt;Slot01 -->
<g id="edge1" class="edge">
<title>SlotLoader&#45;&gt;Slot01</title>
<path fill="none" stroke="black" d="M429.91,-241.78C439.85,-211.51 463.95,-151.05 506,-119 518.34,-109.59 533.55,-103.34 548.59,-99.18"/>
<polygon fill="black" stroke="black" points="549.55,-102.54 558.41,-96.73 547.86,-95.75 549.55,-102.54"/>
</g>
<!-- SlotLoader&#45;&gt;Slot02 -->
<g id="edge2" class="edge">
<title>SlotLoader&#45;&gt;Slot02</title>
<path fill="none" stroke="black" d="M426.61,-241.96C432.13,-203.14 450.63,-111.29 506,-63 518.76,-51.87 535.43,-45.08 551.8,-40.97"/>
<polygon fill="black" stroke="black" points="552.9,-44.31 561.92,-38.74 551.4,-37.48 552.9,-44.31"/>
</g>
<!-- SlotLoader&#45;&gt;Slot03 -->
<g id="edge3" class="edge">
<title>SlotLoader&#45;&gt;Slot03</title>
<path fill="none" stroke="black" d="M469.86,-278.36C472.94,-280.9 475.72,-283.77 478,-287 535.8,-369.01 439.87,-435.54 506,-511 513.36,-519.4 522.91,-525.43 533.26,-529.73"/>
<polygon fill="black" stroke="black" points="532.36,-533.13 542.96,-533.22 534.73,-526.54 532.36,-533.13"/>
</g>
<!-- SlotLoader&#45;&gt;Slot04 -->
<g id="edge4" class="edge">
<title>SlotLoader&#45;&gt;Slot04</title>
<path fill="none" stroke="black" d="M469.22,-278.07C472.53,-280.68 475.53,-283.65 478,-287 522.86,-347.97 454.96,-399.1 506,-455 519.23,-469.48 538.93,-476.87 557.84,-480.51"/>
<polygon fill="black" stroke="black" points="557.49,-484 567.92,-482.13 558.6,-477.09 557.49,-484"/>
</g>
<!-- SlotLoader&#45;&gt;Slot05 -->
<g id="edge5" class="edge">
<title>SlotLoader&#45;&gt;Slot05</title>
<path fill="none" stroke="black" d="M468.69,-278.09C472.15,-280.71 475.34,-283.67 478,-287 510.03,-327.08 469.92,-362.52 506,-399 517.41,-410.53 532.93,-417.5 548.62,-421.67"/>
<polygon fill="black" stroke="black" points="547.85,-425.08 558.38,-423.91 549.42,-418.26 547.85,-425.08"/>
</g>
<!-- SlotLoader&#45;&gt;Slot06 -->
<g id="edge6" class="edge">
<title>SlotLoader&#45;&gt;Slot06</title>
<path fill="none" stroke="black" d="M466.89,-278.03C470.9,-280.7 474.7,-283.68 478,-287 497.64,-306.71 484.39,-325.47 506,-343 513.12,-348.77 521.3,-353.37 529.91,-357.02"/>
<polygon fill="black" stroke="black" points="528.79,-360.34 539.38,-360.63 531.28,-353.8 528.79,-360.34"/>
</g>
<!-- SlotLoader&#45;&gt;Slot07 -->
<g id="edge7" class="edge">
<title>SlotLoader&#45;&gt;Slot07</title>
<path fill="none" stroke="black" d="M473.04,-276.64C483.85,-280.19 495.28,-283.83 506,-287 513.1,-289.1 520.5,-291.21 527.93,-293.27"/>
<polygon fill="black" stroke="black" points="527.14,-296.68 537.71,-295.95 528.99,-289.93 527.14,-296.68"/>
</g>
<!-- SlotLoader&#45;&gt;Slot08 -->
<g id="edge8" class="edge">
<title>SlotLoader&#45;&gt;Slot08</title>
<path fill="none" stroke="black" d="M473.04,-259.74C493.76,-259.63 518.36,-259.5 541.12,-259.38"/>
<polygon fill="black" stroke="black" points="541.45,-262.88 551.43,-259.33 541.41,-255.88 541.45,-262.88"/>
</g>
<!-- SlotLoader&#45;&gt;Slot09 -->
<g id="edge9" class="edge">
<title>SlotLoader&#45;&gt;Slot09</title>
<path fill="none" stroke="black" d="M472.97,-241.98C483.78,-238.18 495.24,-234.32 506,-231 512.88,-228.88 520.03,-226.78 527.24,-224.74"/>
<polygon fill="black" stroke="black" points="528.38,-228.06 537.07,-222.01 526.5,-221.32 528.38,-228.06"/>
</g>
<!-- SlotLoader&#45;&gt;Slot10 -->
<g id="edge10" class="edge">
<title>SlotLoader&#45;&gt;Slot10</title>
<path fill="none" stroke="black" d="M437.05,-241.89C451.47,-222.46 476.91,-192.09 506,-175 508.86,-173.32 511.81,-171.74 514.84,-170.26"/>
<polygon fill="black" stroke="black" points="516.45,-173.37 524.13,-166.07 513.58,-166.99 516.45,-173.37"/>
</g>
<!-- TestFramework -->
<g id="node3" class="node">
<title>TestFramework</title>
<polygon fill="#e0f7fa" stroke="black" points="133,-324 0,-324 0,-288 133,-288 133,-324"/>
<text text-anchor="middle" x="66.5" y="-302.3" font-family="Times,serif" font-size="14.00">Test Framework</text>
</g>
<!-- TestFramework&#45;&gt;Orchestrator -->
<g id="edge21" class="edge">
<title>TestFramework&#45;&gt;Orchestrator</title>
<path fill="none" stroke="black" d="M124.95,-324.06C139.2,-327.76 154.54,-331.11 169,-333 241.27,-342.45 260.51,-340.61 333,-333 341.4,-332.12 350.18,-330.78 358.81,-329.22"/>
<polygon fill="black" stroke="black" points="359.68,-332.62 368.84,-327.29 358.36,-325.74 359.68,-332.62"/>
</g>
<!-- TestFramework&#45;&gt;SlotLoader -->
<g id="edge22" class="edge">
<title>TestFramework&#45;&gt;SlotLoader</title>
<path fill="none" stroke="black" d="M128.02,-287.94C141.41,-284.5 155.61,-281.26 169,-279 234.95,-267.86 311.67,-263.25 363.28,-261.34"/>
<polygon fill="black" stroke="black" points="363.71,-264.83 373.58,-260.99 363.46,-257.83 363.71,-264.83"/>
</g>
<!-- WebSocket -->
<g id="node4" class="node">
<title>WebSocket</title>
<polygon fill="#e0f7fa" stroke="black" points="333,-324 169,-324 169,-288 333,-288 333,-324"/>
<text text-anchor="middle" x="251" y="-302.3" font-family="Times,serif" font-size="14.00">WebSocket Interface</text>
</g>
<!-- TestFramework&#45;&gt;WebSocket -->
<g id="edge23" class="edge">
<title>TestFramework&#45;&gt;WebSocket</title>
<path fill="none" stroke="black" d="M133.13,-306C141.43,-306 150.04,-306 158.64,-306"/>
<polygon fill="black" stroke="black" points="158.73,-309.5 168.73,-306 158.73,-302.5 158.73,-309.5"/>
</g>
<!-- WebSocket&#45;&gt;Orchestrator -->
<g id="edge24" class="edge">
<title>WebSocket&#45;&gt;Orchestrator</title>
<path fill="none" stroke="black" d="M333.26,-309.81C341.7,-310.21 350.19,-310.61 358.41,-310.99"/>
<polygon fill="black" stroke="black" points="358.49,-314.5 368.64,-311.47 358.82,-307.51 358.49,-314.5"/>
</g>
</g>
</svg>
